<?xml version="1.0" encoding="utf-8"?>
<!-- Generator: Adobe Illustrator 22.1.0, SVG Export Plug-In . SVG Version: 6.00 Build 0)  -->
<svg version="1.1" id="Laag_1" xmlns="http://www.w3.org/2000/svg" xmlns:xlink="http://www.w3.org/1999/xlink" x="0px" y="0px"
	 viewBox="0 0 28.3 28.3" style="enable-background:new 0 0 28.3 28.3;" xml:space="preserve">
<style type="text/css">
	.st0{fill:#00D66C;}
</style>
<g>
	<path class="st0" d="M14.1,0C6.2,0,0,6.3,0,14.2c0,7.9,6.2,14.2,14.1,14.2c7.9,0,14.1-6.3,14.1-14.2l0,0C28.3,6.3,22,0,14.1,0z
		 M21.5,17.5c-0.4,3.3-2.7,5.5-6.1,5.5c-3.7,0-6-2.6-6-6.2v-2.9H7c-0.8,0-1.2-0.5-1.2-1.2v-0.4c0-0.8,0.5-1.2,1.2-1.2h4.2
		c0.2,0,0.4,0,0.6,0.1c0-0.1-0.1-0.3-0.1-0.5V6.4c0-0.8,0.5-1.2,1.2-1.2h0.6c0.8,0,1.2,0.5,1.2,1.2v2.6h2.4c0.8,0,1.2,0.5,1.2,1.2
		v0.4c0,0.8-0.5,1.2-1.2,1.2H13c-0.2,0-0.4,0-0.6-0.1c0,0.1,0.1,0.3,0.1,0.5v4.5c0,1.9,1.2,3.3,3,3.3c1.6,0,2.8-1,3-2.5
		c0.1-0.8,0.5-1.2,1.2-1.2h0.8h0C21.1,16.2,21.6,16.6,21.5,17.5z"/>
</g>
</svg>
