<svg xmlns="http://www.w3.org/2000/svg" xmlns:xlink="http://www.w3.org/1999/xlink" width="196.538" height="35.354" viewBox="0 0 196.538 35.354">
  <defs>
    <clipPath id="clip-path">
      <rect width="196.538" height="35.354" fill="none"/>
    </clipPath>
  </defs>
  <g id="Symbol_2_1" data-name="Symbol 2 – 1" clip-path="url(#clip-path)">
    <path id="Path_1" data-name="Path 1" d="M72.821,134.977a17.561,17.561,0,1,0-17.56,17.677,17.57,17.57,0,0,0,17.56-17.677Z" transform="translate(-37.7 -117.3)" fill="#00d66c"/>
    <path id="Path_2" data-name="Path 2" d="M62.042,136.623H61c-1.047,0-1.4.581-1.512,1.512a3.579,3.579,0,0,1-3.721,3.14c-2.21,0-3.721-1.628-3.721-4.07v-5.7a.872.872,0,0,0-.116-.581,1.724,1.724,0,0,0,.814.116h5.233a1.352,1.352,0,0,0,1.512-1.512v-.465a1.352,1.352,0,0,0-1.512-1.512H55.064v-3.14a1.4,1.4,0,0,0-1.512-1.512h-.7a1.4,1.4,0,0,0-1.512,1.512v5.233a.871.871,0,0,0,.116.581,1.724,1.724,0,0,0-.814-.116H45.412a1.4,1.4,0,0,0-1.512,1.512v.465a1.352,1.352,0,0,0,1.512,1.512h2.907V137.2c0,4.535,2.907,7.792,7.559,7.792,4.3,0,7.094-2.675,7.675-6.861a1.352,1.352,0,0,0-1.512-1.512Z" transform="translate(-36.69 -116.388)" fill="#fff"/>
    <path id="Path_3" data-name="Path 3" d="M90.769,143.743h4.187v-8.955c0-3.256,1.744-4.419,3.838-4.419a4.555,4.555,0,0,1,3.024,1.047l1.861-3.256a6.112,6.112,0,0,0-4.07-1.512,5.6,5.6,0,0,0-4.884,2.675L94.491,127H90.886l-.116,16.746Zm116.527-20.7a2.442,2.442,0,1,0-2.442,2.442,2.453,2.453,0,0,0,2.442-2.442ZM83.21,122.228l-4.187.465v4.419H76v3.605h3.14v7.443c0,4.07,2.326,5.931,5.815,5.931a7.867,7.867,0,0,0,3.605-.814L87.4,139.9a5.479,5.479,0,0,1-1.977.465q-2.093,0-2.093-2.442V130.6h4.652V127H83.327l-.116-4.768ZM121.587,127h-3.721l-.233,2.326c-.93-1.512-2.791-2.675-5.7-2.675-4.652,0-8.606,2.907-8.606,8.722s3.954,8.722,8.606,8.722c2.907,0,4.768-1.163,5.7-2.675l.233,2.326h3.721V127Zm81.174,0v16.746h4.187V127Zm-90.245,13.49a4.791,4.791,0,0,1-5-5.117,4.732,4.732,0,0,1,5-5.117,4.791,4.791,0,0,1,5,5.117,4.732,4.732,0,0,1-5,5.117ZM180.084,127h-3.721l-.233,2.326c-.93-1.512-2.791-2.675-5.7-2.675-4.652,0-8.606,2.907-8.606,8.722s3.954,8.722,8.606,8.722c2.907,0,4.768-1.163,5.7-2.675l.233,2.326h3.721Zm-9.071,13.49a4.791,4.791,0,0,1-5-5.117,4.732,4.732,0,0,1,5-5.117,4.791,4.791,0,0,1,5,5.117c-.116,3.256-2.21,5.117-5,5.117ZM228,127h-3.721l-.233,2.326c-.93-1.512-2.791-2.675-5.7-2.675-4.652,0-8.606,2.907-8.606,8.722s3.954,8.722,8.606,8.722c2.907,0,4.768-1.163,5.7-2.675l.233,2.326H228V127Zm-9.071,13.49a4.791,4.791,0,0,1-5-5.117,4.732,4.732,0,0,1,5-5.117,4.791,4.791,0,0,1,5,5.117c-.116,3.256-2.21,5.117-5,5.117Zm-25.352,3.256L200.784,127h-4.3L191.6,139.323,186.712,127h-4.535l7.21,16.746Zm-68.032,0h4.187v-8.955a4.094,4.094,0,0,1,4.187-4.419c2.442,0,4.07,1.628,4.07,4.419v8.955h4.187V134.09c0-5-3.14-7.443-7.094-7.443a6.145,6.145,0,0,0-5.466,2.675L129.379,127h-3.721l-.116,16.746Zm26.98.349c5.233,0,7.327-2.326,7.327-5.35,0-3.721-3.489-4.652-6.4-5.117-1.628-.233-4.187-.349-4.187-1.977,0-1.163,1.4-1.744,3.14-1.744a7.112,7.112,0,0,1,4.536,1.512l2.093-2.791a9.06,9.06,0,0,0-6.4-2.093c-3.605,0-7.559,1.279-7.559,5.233,0,3.721,3.373,4.652,6.4,5.117,1.744.233,4.187.349,4.187,1.977,0,1.163-1.279,1.744-3.024,1.744a8.611,8.611,0,0,1-6.047-2.326l-2.093,2.791c2.21,2.442,5.35,3.024,8.024,3.024Z" transform="translate(-31.459 -116.762)" fill="#00d66c"/>
  </g>
</svg>
